<?xml version="1.0" encoding="utf-8"?>
<svg version="1.1" id="Layer_1" xmlns="http://www.w3.org/2000/svg" xmlns:xlink="http://www.w3.org/1999/xlink" x="0px" y="0px" 
     viewBox="0 0 638.7 341.5" style="enable-background:new 0 0 638.7 341.5;" xml:space="preserve">
<style type="text/css">
	.st0{fill:#F4F4F4;}
</style>
<switch>
	<g>
		<g>
			<g>
				<path class="st0" d="M20.6,325.8v-24.9c0-4-2-6-6.1-6h-0.7v30.9H0.4v-40.5h16.2c11.7,0,17.5,4.5,17.5,13.5v27H20.6z"/>
				<path class="st0" d="M75.7,305.6c0,13.4-5.6,20.1-16.8,20.1H39.7v-26h18v9.6h-4.5v6.8h2.3c4.3,0,6.4-3.2,6.4-9.6
					c0-3.7-0.6-6.5-1.9-8.4c-1.7-2.2-4.5-3.2-8.4-3.2H39.7v-9.6h16.8C69.3,285.3,75.7,292.1,75.7,305.6z"/>
				<path class="st0" d="M113.4,305c0,13.8-5.7,20.7-17,20.7H80.9l-1.9-26h14.1l1.1,16.3c3.6-0.9,5.4-4.3,5.4-10.1
					c0-3.8-0.6-6.5-1.9-8.2c-1.6-1.9-4.4-2.8-8.4-2.8h-3.5v-9.6h9.1c6.3,0,11,1.9,14.2,5.6C111.9,294.3,113.4,299,113.4,305z"/>
				<path class="st0" d="M138.7,325.8v-27.2c0-2.1-1.1-3.1-3.4-3.1c-0.8,0-1.6,0.3-2.3,0.9c-0.7,0.6-1.1,1.3-1.1,2v27.4h-13.5v-40.5
					H132v3.4c2.8-2.6,5.8-3.9,8.9-3.9c7.6,0,11.4,4.1,11.4,12.3v28.6H138.7z"/>
				<path class="st0" d="M139.8,341.5v-5.6h-3.6v-7.1h17.1v12.7H139.8z"/>
				<path class="st0" d="M179.2,325.8v-3.4c-2,2.6-5,3.9-8.9,3.9c-7.6,0-11.4-4.1-11.4-12.3v-28.6h13.5v27.2c0,2.1,1.1,3.1,3.4,3.1
					c2.2,0,3.4-1,3.4-3v-27.3h13.5v40.5H179.2z"/>
				<path class="st0" d="M216.9,325.8v-24.9c0-4-2-6-6.1-6h-0.7v30.9h-13.5v-40.5h16.2c11.7,0,17.5,4.5,17.5,13.5v27H216.9z"/>
				<path class="st0" d="M246.1,325.8v-22.7c0-2.8-0.6-4.9-1.9-6.2c-1.3-1.3-3.6-2-7-2h-3.5v-9.6h7.2c6.7,0,11.5,1.2,14.4,3.6
					c2.8,2.4,4.3,6.2,4.3,11.3v25.6H246.1z"/>
				<path class="st0" d="M295,314.7c0,3.5-1.2,6.2-3.6,8.2c-2.4,2-5.7,2.9-10,2.9h-16.8v-9.6h10.2c3.5,0,5.4-0.4,5.5-1.1
					c0.1-1.1-0.6-2.3-2.2-3.5c-0.4-0.3-1.1-0.8-2.1-1.5c-1.1-0.6-2.4-1.5-4.1-2.5c-5.5-3.4-8.3-7.1-8.4-11.2c-0.2-3.2,1-5.7,3.5-7.7
					c2.6-2.2,6.4-3.3,11.4-3.3h15.5v9.6h-11.5c-2.7,0-4.1,0.3-4.3,0.9c-0.2,0.9,2.1,2.9,6.9,5.8C291.7,305.8,295,310.1,295,314.7z"
					/>
				<path class="st0" d="M334.9,305.6c0,13.4-5.6,20.1-16.8,20.1H299v-26h18v9.6h-4.5v6.8h2.2c4.3,0,6.4-3.2,6.4-9.6
					c0-3.7-0.6-6.5-1.9-8.4c-1.7-2.2-4.5-3.2-8.4-3.2H299v-9.6h16.8C328.5,285.3,334.9,292.1,334.9,305.6z"/>
				<path class="st0" d="M375.4,305.6c0,13.4-5.6,20.1-16.8,20.1h-19.2v-26h18v9.6h-4.5v6.8h2.2c4.3,0,6.4-3.2,6.4-9.6
					c0-3.7-0.6-6.5-1.9-8.4c-1.7-2.2-4.5-3.2-8.4-3.2h-11.8v-9.6h16.8C369,285.3,375.4,292.1,375.4,305.6z"/>
				<path class="st0" d="M402.3,326.3c-3.9,0-6.9-1.3-8.9-3.9v3.4h-13.5v-40.5h13.5v27.3c0,2,1.1,3,3.4,3c2.3,0,3.4-1,3.4-3.1v-27.2
					h13.5v28.6C413.7,322.2,409.9,326.3,402.3,326.3z"/>
				<path class="st0" d="M420.4,325.8v-40.5h13.5v40.5H420.4z M437.3,325.8v-40.5h13.5v40.5H437.3z"/>
				<path class="st0" d="M477.8,325.8v-18.1c0-2.1-1.3-3.1-3.9-3.1c-0.9,0-1.8,0.3-2.6,0.8c-0.9,0.5-1.3,1.2-1.3,2.1v18.3h-13.5
					v-40.5h13.5v12.6c2.4-2,5.6-2.9,9.6-2.9c7.9,0,11.8,4.1,11.8,12.3v18.5H477.8z M473.5,294.9v-9.6h17.8v9.6H473.5z"/>
				<path class="st0" d="M478.9,281.3v-11.1h13.5v11.1H478.9z"/>
				<path class="st0" d="M531.2,305c0,13.8-5.7,20.7-17,20.7h-15.5l-1.9-26h14.1l1.1,16.3c3.6-0.9,5.4-4.3,5.4-10.1
					c0-3.8-0.6-6.5-1.9-8.2c-1.6-1.9-4.4-2.8-8.4-2.8h-3.5v-9.6h9.1c6.3,0,11,1.9,14.2,5.6C529.7,294.3,531.2,299,531.2,305z"/>
				<path class="st0" d="M570,308.3c0.4,11.7-5.1,17.5-16.4,17.5h-17.3v-24.3c0-0.8,0.5-1.9,1.6-3.2c1.1-1.4,1.7-2.5,1.7-3.3h-4.9
					v-9.6H552v7.7c3.3,0,4.8-1.6,4.6-4.8l-0.2-2.9H570v3.1c0,4.5-1.9,7.7-5.7,9.4C568,299.9,569.9,303.4,570,308.3z M556.5,308.3
					c0-4-1.5-6-4.5-6V293c0,1.4-0.4,2.9-1.1,4.3c-0.8,1.5-1.1,2.8-1.1,4.1v14.8h0.3c2.3,0,4-0.6,4.9-1.7
					C556,313.4,556.5,311.3,556.5,308.3z"/>
				<path class="st0" d="M584.6,325.8v-22.7c0-2.8-0.6-4.9-1.9-6.2c-1.3-1.3-3.6-2-7-2h-3.5v-9.6h7.2c6.7,0,11.5,1.2,14.4,3.6
					c2.8,2.4,4.3,6.2,4.3,11.3v25.6H584.6z"/>
				<path class="st0" d="M624.1,325.8v-29.4l-3.3,3l-3.7-3.1c-1.2,1.8-1.8,5.1-1.8,10c0,6.5,1,9.8,3.1,9.8h1.6v9.6h-4.9
					c-9.1,0-13.6-6.7-13.6-20.2c0-6.1,1.2-10.9,3.5-14.5c2.7-4.2,6.6-6.3,11.7-6.3h0.8l3.8,3.1l3.5-2.6h12.8v40.5H624.1z"/>
				<path class="st0" d="M605,281.3v-6.1h33.7v6.1H605z"/>
			</g>
			<g>
				<path class="st0" d="M102.2,14.5H14.5v221.9h77.7V72.7c18.1,0,27.2,9.4,27.2,28.3v135.4H197v-147
					C197,39.5,165.4,14.5,102.2,14.5z"/>
				<path class="st0" d="M312.4,14.5h-87.7v58.3h62.1c19.2,0,32.7,5.5,40.5,16.6c0.1,0.2,0.2,0.4,0.4,0.6
					c19.7,2.9,34.4,11.7,34.4,21.8c0,0.9-0.1,1.8-0.4,2.7c-0.2,0.8-0.5,1.5-0.8,2.2c-0.3,0.6-0.7,1.3-1.1,1.9
					c-1,1.5-2.4,2.9-4.1,4.3c-0.5,0.5-1.1,0.9-1.7,1.3c-0.6,0.4-1.2,0.8-1.9,1.2c-2.9,1.8-6.3,3.4-10.2,4.7
					c-1.1,0.4-2.3,0.8-3.5,1.1c-1.4,0.4-2.8,0.7-4.2,1.1c-6.2,1.4-13.1,2.2-20.3,2.2c-7.2,0-14.1-0.8-20.3-2.2
					c-1.4-0.3-2.9-0.7-4.2-1.1c-1.2-0.3-2.4-0.7-3.5-1.1c-3.8-1.3-7.3-2.9-10.2-4.7c-0.7-0.4-1.3-0.8-1.9-1.2
					c-0.6-0.4-1.2-0.9-1.7-1.3c-1.7-1.4-3-2.8-4.1-4.3c-0.4-0.6-0.8-1.3-1.1-1.9c-0.4-0.7-0.6-1.5-0.8-2.2c-0.2-0.9-0.4-1.8-0.4-2.7
					c0-9.1,11.8-17.1,28.4-20.7h-69.4v145.4h100.4c60.7,0,91-36.8,91-110.4C416.2,51.7,381.6,14.5,312.4,14.5z M362.2,184.4
					c0,12.4-22.1,22.8-48.2,22.8c-26.2,0-48.2-10.5-48.2-22.8c0-0.6,0.1-1.3,0.2-1.9c-0.1-0.6-0.2-1.3-0.2-2c0-0.9,0.1-1.8,0.4-2.7
					c8,9.4,26.2,15.9,47.9,15.9c21.6,0,39.8-6.4,47.9-15.9c0.2,0.9,0.4,1.8,0.4,2.7c0,0.7-0.1,1.3-0.2,2
					C362.1,183.2,362.2,183.8,362.2,184.4z M361.8,169.6c-0.2,0.8-0.5,1.5-0.8,2.2c-0.3,0.6-0.7,1.3-1.1,1.9
					c-6.3,9.1-24.8,16-45.9,16c-21.1,0-39.6-6.8-45.9-16c-0.4-0.6-0.8-1.3-1.1-1.9c-0.4-0.7-0.6-1.5-0.8-2.2
					c-0.2-0.9-0.4-1.8-0.4-2.7c0-0.9,0.1-1.8,0.4-2.7c0.8,0.9,1.7,1.9,2.7,2.7c0.5,0.5,1,0.9,1.6,1.3c0.5,0.4,1.1,0.8,1.7,1.2
					c9.5,6.5,24.5,10.6,41.8,10.6c17.3,0,32.4-4.1,41.8-10.6c0.6-0.4,1.2-0.8,1.7-1.2c0.6-0.4,1.1-0.9,1.6-1.3
					c1-0.9,1.9-1.8,2.7-2.7c0.2,0.9,0.4,1.8,0.4,2.7C362.2,167.8,362.1,168.7,361.8,169.6z M361.8,155.8c-0.2,0.8-0.5,1.5-0.8,2.2
					c-0.3,0.7-0.7,1.3-1.1,1.9c-1,1.5-2.4,2.9-4.1,4.3c-0.5,0.5-1.1,0.9-1.7,1.3c-0.6,0.4-1.2,0.8-1.9,1.2
					c-8.9,5.5-22.8,9.1-38.2,9.1c-15.3,0-29.3-3.6-38.2-9.1c-0.7-0.4-1.3-0.8-1.9-1.2c-0.6-0.4-1.2-0.9-1.7-1.3
					c-1.7-1.4-3-2.8-4.1-4.3c-0.4-0.6-0.8-1.3-1.1-1.9c-0.4-0.7-0.6-1.5-0.8-2.2c-0.2-0.9-0.4-1.8-0.4-2.7c0-0.9,0.1-1.8,0.4-2.7
					c0.8,0.9,1.7,1.9,2.7,2.7c0.5,0.5,1,0.9,1.6,1.3c0.5,0.4,1.1,0.8,1.7,1.2c2.3,1.6,5,3,7.9,4.3c0.9,0.4,1.8,0.8,2.8,1.1
					c1,0.4,2,0.7,3.1,1.1c8.1,2.6,17.6,4.1,28,4.1c10.4,0,20-1.5,28-4.1c1.1-0.3,2.1-0.7,3.1-1.1c0.9-0.4,1.9-0.7,2.8-1.1
					c3-1.3,5.6-2.7,7.9-4.3c0.6-0.4,1.2-0.8,1.7-1.2c0.6-0.4,1.1-0.9,1.6-1.3c1-0.9,1.9-1.8,2.7-2.7c0.2,0.9,0.4,1.8,0.4,2.7
					C362.2,154,362.1,154.9,361.8,155.8z M361.8,142.1c-0.2,0.7-0.5,1.5-0.8,2.2c-0.3,0.7-0.7,1.3-1.1,1.9c-1,1.5-2.4,2.9-4.1,4.3
					c-0.5,0.5-1.1,0.9-1.7,1.3c-0.6,0.4-1.2,0.8-1.9,1.3c-2.9,1.8-6.3,3.4-10.2,4.7c-1.1,0.4-2.3,0.8-3.5,1.1
					c-1.4,0.4-2.8,0.7-4.2,1.1c-6.2,1.4-13.1,2.2-20.3,2.2c-7.2,0-14.1-0.8-20.3-2.2c-1.4-0.3-2.8-0.7-4.2-1.1
					c-1.2-0.4-2.4-0.7-3.5-1.1c-3.8-1.3-7.3-2.9-10.2-4.7c-0.7-0.4-1.3-0.8-1.9-1.3c-0.6-0.4-1.2-0.9-1.7-1.3
					c-1.7-1.4-3-2.8-4.1-4.3c-0.4-0.6-0.8-1.3-1.1-1.9c-0.4-0.7-0.6-1.5-0.8-2.2c-0.2-0.9-0.4-1.8-0.4-2.7c0-0.9,0.1-1.8,0.4-2.7
					c0.8,0.9,1.7,1.9,2.7,2.7c0.5,0.5,1,0.9,1.6,1.3c0.5,0.4,1.1,0.8,1.7,1.2c2.3,1.6,5,3,7.9,4.3c0.9,0.4,1.8,0.8,2.8,1.1
					c1,0.4,2,0.7,3.1,1.1c8.1,2.6,17.6,4.1,28,4.1c10.4,0,20-1.5,28-4.1c1.1-0.3,2.1-0.7,3.1-1.1c0.9-0.4,1.9-0.7,2.8-1.1
					c3-1.3,5.6-2.7,7.9-4.3c0.6-0.4,1.2-0.8,1.7-1.2c0.6-0.4,1.1-0.9,1.6-1.3c1-0.9,1.9-1.8,2.7-2.7c0.2,0.9,0.4,1.8,0.4,2.7
					C362.2,140.2,362.1,141.2,361.8,142.1z M361.8,128.3c-0.2,0.7-0.5,1.5-0.8,2.2c-0.3,0.6-0.7,1.3-1.1,1.9c-1,1.5-2.4,2.9-4.1,4.3
					c-0.5,0.5-1.1,0.9-1.7,1.3c-0.6,0.4-1.2,0.8-1.9,1.2c-2.9,1.8-6.3,3.4-10.2,4.7c-1.1,0.4-2.3,0.8-3.5,1.1
					c-1.4,0.4-2.8,0.8-4.2,1.1c-6.2,1.4-13.1,2.2-20.3,2.2c-7.2,0-14.1-0.8-20.3-2.2c-1.4-0.3-2.8-0.7-4.2-1.1
					c-1.2-0.3-2.4-0.7-3.5-1.1c-3.8-1.3-7.3-2.9-10.2-4.7c-0.7-0.4-1.3-0.8-1.9-1.2c-0.6-0.4-1.2-0.9-1.7-1.3
					c-1.7-1.4-3-2.8-4.1-4.3c-0.4-0.6-0.8-1.3-1.1-1.9c-0.4-0.7-0.6-1.5-0.8-2.2c-0.2-0.9-0.4-1.8-0.4-2.7c0-0.9,0.1-1.8,0.4-2.7
					c0.8,0.9,1.7,1.9,2.7,2.7c0.5,0.5,1,0.9,1.6,1.3c0.5,0.4,1.1,0.8,1.7,1.2c2.3,1.6,5,3,7.9,4.3c0.9,0.4,1.8,0.8,2.8,1.1
					c1,0.4,2,0.7,3.1,1.1c8.1,2.6,17.6,4.1,28,4.1c10.4,0,20-1.5,28-4.1c1.1-0.3,2.1-0.7,3.1-1.1c1-0.4,1.9-0.7,2.8-1.1
					c3-1.3,5.6-2.7,7.9-4.3c0.6-0.4,1.2-0.8,1.7-1.2c0.6-0.4,1.1-0.9,1.6-1.3c1-0.9,1.9-1.8,2.7-2.7c0.2,0.9,0.4,1.8,0.4,2.7
					C362.2,126.5,362.1,127.4,361.8,128.3z"/>
				<path class="st0" d="M638.2,139.7c-0.3-21.3-6.5-39.4-18.3-53.7c12.1-12.8,18.3-29.9,18.3-50.9V0H412.3v47.6
					C393.2,16.2,359.6,0,312.4,0H210.3v72.2C204.9,36.1,180.1,0,102.2,0H0v250.9h210.3h1.2h113.7c37.8,0,81.2-13.4,98.1-69v69h111.6
					c35.4,0,62-9.1,79-27C630.9,206.2,639,177.8,638.2,139.7z M203.6,243h-90.9V101c0-12.7-4.3-19.3-14-21.2V243H7.9V7.9h94.3
					c67.3,0,101.5,27.4,101.5,81.5V243z M325.2,243h-107V84.5h94c-6.4-3.4-14.8-5.1-25.3-5.1h-68.7V7.9h94.3
					c73.2,0,110.3,39.7,110.3,118.1C422.8,203.7,390,243,325.2,243z M608.2,218.5c-15.5,16.3-40.1,24.5-73.3,24.5H431.3V103.8
					c0-4.5,0.7-8.6,2.1-12.2c1.2-3.1,2.7-6.1,4.4-8.8c0.7-1.2,1.4-2.4,2.1-3.6h-19.7V7.9H531v43.3c4.7-0.3,9.4-2,9-14.3l-1.4-29
					h91.7V35c0,21.9-7.2,38.8-21.5,50.5c13.9,13.7,21.1,31.9,21.5,54.3C631.1,175.8,623.7,202.3,608.2,218.5z"/>
				<path class="st0" d="M598.2,85c17-10.4,25.5-27,25.5-49.9V14.5h-78.2l1.1,22.2c0.4,13.7-5,20.7-16.1,21.1v51.6
					c10.4,0,15.5,10.2,15.5,30.5c0,27.4-10.2,41.1-30.5,41.1v-77.7c0-4.1,1.5-9.1,4.4-15c3-5.9,4.4-12.2,4.4-18.9V14.5h-97.7v58.3
					h22.2c0,2.2-0.6,4.4-1.7,6.7c-1.1,2.2-2.4,4.5-3.9,6.9c-1.5,2.4-2.8,5-3.9,7.8c-1.1,2.8-1.7,6-1.7,9.7v132.6h0.6h96h0.6
					c31.4,0,54.3-7.5,68.5-22.5c14.2-15,21-39.7,20.3-74.1C623.3,116.2,614.8,97.9,598.2,85z"/>
				<path class="st0" d="M522.1,115.9v57.8c9-1.9,17.3-9.2,17.3-33.9c0-10.9-1.6-23.9-9-23.9h-6.6v0H522.1z M530,125.5
					c0.7,2.3,1.5,6.6,1.5,14.4c0,6.5-0.6,11.4-1.5,15V125.5z"/>
			</g>
		</g>
	</g>
</switch>
</svg>